<?xml version="1.0" encoding="utf-8"?>
<!-- Generator: Adobe Illustrator 23.0.0, SVG Export Plug-In . SVG Version: 6.00 Build 0)  -->
<svg version="1.1" id="Capa_1" xmlns="http://www.w3.org/2000/svg" xmlns:xlink="http://www.w3.org/1999/xlink" x="0px" y="0px"
	 viewBox="0 0 98.29 66.59" style="enable-background:new 0 0 98.29 66.59;" xml:space="preserve">
<style type="text/css">
	.st0{fill:#FFFFFF;}
	.st1{fill:#7F7F7F;}
</style>
<path class="st0" d="M47.26,66.59c-1.06,0-2.13-0.4-2.94-1.21L15.17,36.23c-0.78-0.78-1.21-1.83-1.21-2.94s0.43-2.16,1.21-2.94
	L44.32,1.21C45.1,0.43,46.14,0,47.26,0c1.11,0,2.16,0.43,2.94,1.21l29.14,29.14c0.78,0.78,1.21,1.83,1.21,2.94s-0.43,2.16-1.21,2.94
	L50.19,65.38C49.38,66.19,48.32,66.59,47.26,66.59 M47.26,1.41c-0.74,0-1.42,0.28-1.94,0.8L16.17,31.35c-0.52,0.52-0.8,1.2-0.8,1.94
	c0,0.74,0.28,1.42,0.8,1.94l29.14,29.14c1.07,1.07,2.81,1.07,3.88,0l29.14-29.14c0.52-0.52,0.8-1.2,0.8-1.94
	c0-0.74-0.28-1.42-0.8-1.94L49.2,2.21C48.68,1.7,47.99,1.41,47.26,1.41"/>
<path class="st0" d="M61.5,34.36L32.04,63.82c-0.59,0.59-1.55,0.59-2.14,0L0.44,34.36c-0.59-0.59-0.59-1.55,0-2.14L29.9,2.77
	c0.59-0.59,1.55-0.59,2.14,0L61.5,32.23C62.08,32.81,62.08,33.77,61.5,34.36"/>
<path class="st0" d="M36.61,64.16c-1.06,0-2.13-0.4-2.94-1.21L6.96,36.23c-0.78-0.78-1.21-1.83-1.21-2.94
	c0-1.11,0.43-2.16,1.21-2.94L33.67,3.64c0.78-0.78,1.83-1.21,2.94-1.21c1.11,0,2.16,0.43,2.94,1.21l26.72,26.72
	c0.78,0.78,1.21,1.83,1.21,2.94c0,1.11-0.43,2.16-1.21,2.94h0L39.55,62.95C38.74,63.76,37.68,64.16,36.61,64.16 M36.61,3.83
	c-0.7,0-1.41,0.27-1.94,0.8L7.95,31.35c-0.52,0.52-0.8,1.2-0.8,1.94c0,0.74,0.28,1.42,0.8,1.94l26.72,26.72
	c1.07,1.07,2.81,1.07,3.88,0l26.72-26.72c0.52-0.52,0.8-1.2,0.8-1.94c0-0.74-0.28-1.42-0.8-1.94L38.55,4.64
	C38.02,4.1,37.31,3.83,36.61,3.83"/>
<path class="st0" d="M58.43,64.16c-1.06,0-2.13-0.4-2.94-1.21L28.77,36.23c-0.78-0.78-1.21-1.83-1.21-2.94
	c0-1.11,0.43-2.16,1.21-2.94L55.49,3.64c0.78-0.78,1.83-1.21,2.94-1.21c1.11,0,2.16,0.43,2.94,1.21l26.72,26.72
	c0.78,0.78,1.21,1.83,1.21,2.94c0,1.11-0.43,2.16-1.21,2.94L61.36,62.95C60.55,63.76,59.49,64.16,58.43,64.16 M58.43,3.84
	c-0.74,0-1.42,0.28-1.94,0.8L29.77,31.35c-0.52,0.52-0.8,1.2-0.8,1.94c0,0.74,0.28,1.42,0.8,1.94l26.72,26.72
	c1.07,1.07,2.81,1.07,3.88,0l26.72-26.72c0.52-0.52,0.8-1.2,0.8-1.94c0-0.74-0.28-1.42-0.8-1.94L60.37,4.64
	C59.85,4.12,59.16,3.84,58.43,3.84"/>
<path class="st0" d="M77.78,34.36L48.32,63.82c-0.59,0.59-1.55,0.59-2.14,0L16.73,34.36c-0.59-0.59-0.59-1.55,0-2.14L46.19,2.77
	c0.59-0.59,1.55-0.59,2.14,0l29.46,29.46C78.37,32.81,78.37,33.77,77.78,34.36"/>
<path class="st0" d="M97.85,34.36L68.39,63.82c-0.59,0.59-1.55,0.59-2.14,0L36.79,34.36c-0.59-0.59-0.59-1.55,0-2.14L66.25,2.77
	c0.59-0.59,1.55-0.59,2.14,0l29.46,29.46C98.44,32.81,98.44,33.77,97.85,34.36"/>
<path class="st0" d="M80.16,46.82H18.12c-3.02,0-5.5-2.47-5.5-5.5V25c0-3.02,2.47-5.5,5.5-5.5h62.04c3.02,0,5.5,2.47,5.5,5.5v16.33
	C85.66,44.35,83.18,46.82,80.16,46.82"/>
<path class="st1" d="M31.1,40.62c-1.22,0-2.43-0.15-3.62-0.45c-1.19-0.3-2.33-0.71-3.42-1.24c-0.02,0-0.05-0.01-0.08-0.03
	c-0.04-0.02-0.08-0.04-0.14-0.06c-0.09-0.06-0.16-0.12-0.21-0.18c-0.05-0.07-0.07-0.12-0.07-0.15c0-0.02,0.1-0.22,0.31-0.61
	c0.21-0.38,0.45-0.82,0.73-1.31c0.26-0.43,0.51-0.85,0.73-1.25c0.23-0.4,0.41-0.73,0.56-0.97c0.21,0.09,0.36,0.16,0.46,0.21
	c0.1,0.05,0.2,0.1,0.3,0.15c0.83,0.41,1.65,0.73,2.48,0.96c0.83,0.23,1.69,0.34,2.59,0.34h0.38c0.12,0,0.25-0.01,0.38-0.03
	c0.28,0,0.54-0.04,0.76-0.11c0.23-0.09,0.42-0.23,0.58-0.39c0.16-0.17,0.24-0.42,0.24-0.76c0-0.24-0.09-0.44-0.28-0.58
	c-0.19-0.14-0.39-0.26-0.59-0.35c-0.13-0.06-0.25-0.1-0.37-0.14c-0.32-0.13-0.64-0.23-0.97-0.3c-0.33-0.07-0.66-0.14-1-0.21
	c-0.45-0.09-0.89-0.19-1.32-0.3c-0.43-0.1-0.85-0.21-1.27-0.32c-0.43-0.13-0.84-0.28-1.21-0.44c-0.38-0.16-0.73-0.34-1.07-0.55
	c-0.69-0.43-1.25-1-1.66-1.7c-0.41-0.7-0.62-1.64-0.62-2.8c0-0.83,0.18-1.62,0.54-2.39c0.36-0.75,0.81-1.37,1.37-1.85
	c0.55-0.48,1.17-0.86,1.85-1.14c0.68-0.28,1.38-0.47,2.11-0.58c0.73-0.1,1.46-0.15,2.2-0.15c1.2,0,2.4,0.15,3.59,0.45
	c1.19,0.3,2.36,0.81,3.51,1.52c-0.43,0.73-0.84,1.43-1.21,2.1c-0.38,0.67-0.78,1.37-1.21,2.1c-0.96-0.49-1.85-0.87-2.69-1.14
	c-0.84-0.27-1.73-0.41-2.69-0.41c-0.19,0-0.4,0-0.63,0.01c-0.24,0.01-0.45,0.05-0.65,0.13c-0.2,0.08-0.37,0.19-0.51,0.34
	c-0.14,0.15-0.21,0.37-0.21,0.65c0,0.17,0.05,0.33,0.14,0.48c0.07,0.15,0.24,0.28,0.49,0.38c0.25,0.1,0.6,0.21,1.03,0.32
	c0.41,0.11,0.87,0.22,1.37,0.32c0.5,0.1,1.01,0.23,1.54,0.38c0.53,0.13,1.06,0.29,1.61,0.46c0.54,0.18,1.06,0.4,1.54,0.68
	c0.48,0.27,0.91,0.59,1.3,0.96c0.38,0.37,0.69,0.8,0.92,1.31c0.17,0.38,0.29,0.78,0.35,1.21c0.07,0.43,0.1,0.85,0.1,1.27
	c0,1.24-0.25,2.25-0.75,3.04c-0.5,0.79-1.15,1.42-1.94,1.89c-0.8,0.47-1.69,0.79-2.68,0.97C33.06,40.53,32.08,40.62,31.1,40.62"/>
<path class="st1" d="M50.64,34.48h-3.26v5.55h-5.35V21.46h8.59c0.92,0,1.81,0.16,2.66,0.49c0.85,0.33,1.61,0.79,2.27,1.38
	c0.66,0.59,1.18,1.29,1.58,2.08c0.39,0.8,0.59,1.66,0.59,2.58c0,0.94-0.2,1.8-0.59,2.59c-0.39,0.79-0.91,1.47-1.56,2.04
	c-0.65,0.57-1.4,1.02-2.26,1.35C52.45,34.31,51.56,34.48,50.64,34.48 M50.46,25.97h-3v3.58h3c0.49,0,0.9-0.17,1.23-0.52
	c0.34-0.35,0.5-0.75,0.5-1.2c0-0.47-0.17-0.9-0.52-1.28C51.33,26.16,50.93,25.97,50.46,25.97"/>
<polygon class="st1" points="60.48,40.03 60.48,21.46 65.69,21.46 65.69,35.32 75.32,35.32 75.32,40.03 "/>
</svg>
