<?xml version="1.0" encoding="utf-8"?>
<!-- Generator: Adobe Illustrator 23.0.0, SVG Export Plug-In . SVG Version: 6.00 Build 0)  -->
<svg version="1.1" id="Capa_1" xmlns="http://www.w3.org/2000/svg" xmlns:xlink="http://www.w3.org/1999/xlink" x="0px" y="0px"
	 viewBox="0 0 184.28 124.85" style="enable-background:new 0 0 184.28 124.85;" xml:space="preserve">
<style type="text/css">
	.st0{fill:#0823C4;}
	.st1{fill:#FFEC00;}
	.st2{fill:#E00E0E;}
	.st3{fill:#FFFFFF;}
	.st4{fill:#7F7F7F;}
</style>
<path class="st0" d="M88.6,124.85c-1.99,0-3.99-0.76-5.51-2.28L28.45,67.93c-1.47-1.47-2.27-3.42-2.27-5.51
	c0-2.09,0.81-4.04,2.27-5.51L83.09,2.27C84.56,0.81,86.51,0,88.6,0s4.04,0.81,5.51,2.27l54.64,54.64c1.47,1.47,2.27,3.42,2.27,5.51
	c0,2.09-0.81,4.04-2.27,5.51l-54.64,54.64C92.59,124.09,90.59,124.85,88.6,124.85 M88.6,2.65c-1.38,0-2.67,0.53-3.64,1.5
	L30.32,58.78c-0.97,0.97-1.5,2.26-1.5,3.64c0,1.38,0.53,2.67,1.5,3.64l54.64,54.64c2.01,2.01,5.27,2.01,7.27,0l54.64-54.64
	c0.97-0.97,1.5-2.26,1.5-3.64c0-1.38-0.53-2.67-1.5-3.64L92.23,4.14C91.27,3.18,89.98,2.65,88.6,2.65"/>
<path class="st1" d="M115.3,64.42l-55.23,55.23c-1.1,1.1-2.9,1.1-4,0L0.83,64.42c-1.1-1.1-1.1-2.9,0-4L56.06,5.19
	c1.1-1.1,2.9-1.1,4,0l55.23,55.23C116.4,61.52,116.4,63.32,115.3,64.42"/>
<path class="st1" d="M68.64,120.3c-1.99,0-3.99-0.76-5.51-2.28L13.04,67.93c-1.47-1.47-2.27-3.42-2.27-5.51
	c0-2.09,0.81-4.04,2.27-5.51L63.13,6.82c1.47-1.47,3.42-2.27,5.51-2.27c2.09,0,4.04,0.81,5.51,2.27l50.09,50.09
	c1.47,1.47,2.27,3.42,2.27,5.51c0,2.09-0.81,4.04-2.27,5.51h0l-50.09,50.09C72.63,119.54,70.64,120.3,68.64,120.3 M68.64,7.19
	c-1.32,0-2.63,0.5-3.64,1.5L14.91,58.78c-0.97,0.97-1.5,2.26-1.5,3.64c0,1.38,0.53,2.67,1.5,3.64l50.09,50.09
	c2.01,2.01,5.27,2,7.27,0l50.09-50.09c0.97-0.97,1.5-2.26,1.5-3.64c0-1.38-0.53-2.67-1.5-3.64L72.28,8.69
	C71.28,7.69,69.96,7.19,68.64,7.19"/>
<path class="st2" d="M109.54,120.3c-1.99,0-3.99-0.76-5.51-2.28L53.94,67.93c-1.47-1.47-2.27-3.42-2.27-5.51s0.81-4.04,2.27-5.51
	l50.09-50.09c1.47-1.47,3.42-2.27,5.51-2.27c2.09,0,4.04,0.81,5.51,2.27l50.09,50.09c1.47,1.47,2.27,3.42,2.27,5.51
	s-0.81,4.04-2.27,5.51l-50.09,50.09C113.53,119.54,111.54,120.3,109.54,120.3 M109.54,7.19c-1.38,0-2.67,0.53-3.64,1.5L55.81,58.78
	c-0.97,0.97-1.5,2.26-1.5,3.64c0,1.38,0.53,2.67,1.5,3.64l50.09,50.09c2.01,2,5.27,2.01,7.27,0l50.09-50.09
	c0.97-0.97,1.5-2.26,1.5-3.64c0-1.38-0.53-2.67-1.5-3.64L113.18,8.69C112.21,7.73,110.92,7.19,109.54,7.19"/>
<path class="st0" d="M145.83,64.42L90.6,119.66c-1.1,1.1-2.9,1.1-4,0L31.36,64.42c-1.1-1.1-1.1-2.9,0-4L86.6,5.19
	c1.1-1.1,2.9-1.1,4,0l55.23,55.23C146.93,61.52,146.93,63.32,145.83,64.42"/>
<path class="st2" d="M183.45,64.42l-55.23,55.23c-1.1,1.1-2.9,1.1-4,0L68.98,64.42c-1.1-1.1-1.1-2.9,0-4l55.23-55.23
	c1.1-1.1,2.9-1.1,4,0l55.23,55.23C184.56,61.52,184.56,63.32,183.45,64.42"/>
<path class="st3" d="M150.29,87.78H33.97c-5.67,0-10.3-4.64-10.3-10.3V46.87c0-5.67,4.64-10.3,10.3-10.3h116.32
	c5.67,0,10.3,4.64,10.3,10.3v30.61C160.6,83.14,155.96,87.78,150.29,87.78"/>
<path class="st4" d="M58.31,76.15c-2.29,0-4.55-0.28-6.79-0.85c-2.24-0.56-4.38-1.34-6.42-2.32c-0.04,0-0.09-0.02-0.16-0.05
	c-0.07-0.03-0.16-0.07-0.26-0.11c-0.18-0.11-0.31-0.22-0.4-0.34c-0.09-0.12-0.13-0.22-0.13-0.29c0-0.03,0.19-0.41,0.58-1.14
	c0.39-0.72,0.85-1.54,1.37-2.46c0.49-0.81,0.95-1.59,1.37-2.35c0.42-0.76,0.77-1.36,1.06-1.82c0.39,0.18,0.68,0.31,0.87,0.4
	c0.19,0.09,0.38,0.18,0.55,0.29c1.55,0.77,3.1,1.37,4.65,1.8c1.55,0.42,3.17,0.63,4.86,0.63h0.71c0.23,0,0.47-0.02,0.71-0.05
	c0.53,0,1-0.07,1.43-0.21c0.42-0.18,0.78-0.42,1.08-0.74c0.3-0.32,0.45-0.79,0.45-1.43c0-0.46-0.18-0.82-0.53-1.08
	c-0.35-0.26-0.72-0.48-1.11-0.66c-0.25-0.11-0.48-0.19-0.69-0.26c-0.6-0.25-1.21-0.43-1.82-0.55c-0.62-0.12-1.24-0.26-1.87-0.4
	c-0.85-0.18-1.67-0.36-2.48-0.55c-0.81-0.19-1.6-0.4-2.38-0.61c-0.81-0.25-1.57-0.52-2.27-0.82c-0.7-0.3-1.37-0.64-2.01-1.03
	c-1.3-0.81-2.34-1.87-3.12-3.2c-0.77-1.32-1.16-3.07-1.16-5.25c0-1.55,0.33-3.05,1-4.49c0.67-1.41,1.52-2.56,2.56-3.46
	c1.04-0.9,2.19-1.61,3.46-2.14c1.27-0.53,2.59-0.89,3.96-1.08c1.37-0.19,2.75-0.29,4.12-0.29c2.25,0,4.5,0.28,6.73,0.85
	c2.24,0.56,4.43,1.51,6.58,2.85c-0.81,1.37-1.57,2.69-2.27,3.93c-0.7,1.25-1.46,2.56-2.27,3.93c-1.8-0.92-3.48-1.63-5.04-2.14
	C61.68,48.15,60,47.9,58.2,47.9c-0.35,0-0.75,0.01-1.19,0.03c-0.44,0.02-0.85,0.1-1.21,0.24c-0.37,0.14-0.69,0.35-0.95,0.63
	c-0.26,0.28-0.4,0.69-0.4,1.21c0,0.32,0.09,0.62,0.26,0.9c0.14,0.28,0.45,0.52,0.92,0.71c0.48,0.19,1.12,0.4,1.93,0.61
	c0.77,0.21,1.63,0.41,2.56,0.61c0.93,0.19,1.89,0.43,2.88,0.71c0.99,0.25,1.99,0.54,3.01,0.87c1.02,0.33,1.98,0.76,2.88,1.27
	c0.9,0.51,1.71,1.11,2.43,1.8c0.72,0.69,1.29,1.51,1.72,2.46c0.32,0.7,0.54,1.46,0.66,2.27c0.12,0.81,0.18,1.6,0.18,2.38
	c0,2.32-0.47,4.23-1.4,5.7c-0.93,1.48-2.15,2.66-3.64,3.54c-1.5,0.88-3.17,1.49-5.02,1.82C61.98,75.99,60.14,76.15,58.31,76.15"/>
<path class="st4" d="M94.94,64.64h-6.11v10.4H78.8v-34.8h16.11c1.72,0,3.39,0.31,4.99,0.92c1.6,0.62,3.02,1.48,4.25,2.59
	c1.23,1.11,2.22,2.41,2.96,3.91c0.74,1.5,1.11,3.11,1.11,4.83c0,1.76-0.37,3.38-1.11,4.86c-0.74,1.48-1.71,2.76-2.92,3.83
	c-1.21,1.07-2.62,1.92-4.24,2.54C98.33,64.33,96.66,64.64,94.94,64.64 M94.61,48.69h-5.62v6.71h5.62c0.91,0,1.68-0.33,2.31-0.98
	c0.63-0.65,0.94-1.4,0.94-2.24c0-0.88-0.32-1.68-0.97-2.4C96.24,49.05,95.48,48.69,94.61,48.69"/>
<polygon class="st4" points="113.39,75.04 113.39,40.24 123.16,40.24 123.16,66.22 141.22,66.22 141.22,75.04 "/>
</svg>
